<svg xmlns="http://www.w3.org/2000/svg" width="95.898" height="87.037" viewBox="0 0 95.898 87.037">
  <defs>
    <style>
      .cls-1 {
        fill: #b7ddf7;
      }
    </style>
  </defs>
  <g id="web-development-svgrepo-com" transform="translate(0 -15.992)">
    <g id="Group_4" data-name="Group 4" transform="translate(0 15.992)">
      <g id="Group_3" data-name="Group 3" transform="translate(0 0)">
        <path id="Path_7" data-name="Path 7" class="cls-1" d="M66.882,94.742a4.42,4.42,0,0,1-1.738-1.961H6.686V35.724H86.034V72.981a4.418,4.418,0,0,1,3.712,2.762,4.443,4.443,0,0,1,2.974-.45V21.51a5.551,5.551,0,0,0-5.571-5.518H5.572A5.551,5.551,0,0,0,0,21.51V93.885A5.551,5.551,0,0,0,5.572,99.4h60.8a4.3,4.3,0,0,1-.308-3.059A4.349,4.349,0,0,1,66.882,94.742ZM79.916,25.258a2.048,2.048,0,0,1,2.057-2.037H84.03a2.047,2.047,0,0,1,2.057,2.037v2.309A2.047,2.047,0,0,1,84.03,29.6H81.973a2.047,2.047,0,0,1-2.057-2.037Zm-9.567,0a2.048,2.048,0,0,1,2.057-2.037h2.058a2.047,2.047,0,0,1,2.057,2.037v2.309A2.047,2.047,0,0,1,74.464,29.6H72.406a2.047,2.047,0,0,1-2.057-2.037Zm-9.567,0a2.048,2.048,0,0,1,2.057-2.037H64.9a2.047,2.047,0,0,1,2.058,2.037v2.309A2.047,2.047,0,0,1,64.9,29.6H62.839a2.048,2.048,0,0,1-2.057-2.037Z" transform="translate(0 -15.992)"/>
        <path id="Path_8" data-name="Path 8" class="cls-1" d="M303.487,281.362l-.3-1.7a.421.421,0,0,0-.487-.341l-1.51.266a5.665,5.665,0,0,0-.688-1.189l.986-1.176a.42.42,0,0,0-.052-.592l-1.321-1.108a.421.421,0,0,0-.593.052l-.986,1.175a5.646,5.646,0,0,0-1.291-.47v-1.534a.421.421,0,0,0-.421-.421H295.1a.421.421,0,0,0-.421.421v1.534a5.642,5.642,0,0,0-1.291.47l-.986-1.175a.421.421,0,0,0-.593-.052l-1.321,1.108a.421.421,0,0,0-.052.593l.987,1.176a5.686,5.686,0,0,0-.688,1.189l-1.51-.266a.421.421,0,0,0-.487.341l-.3,1.7a.42.42,0,0,0,.341.487l1.511.266a5.664,5.664,0,0,0,.237,1.353l-1.328.767a.42.42,0,0,0-.154.574l.862,1.493a.42.42,0,0,0,.574.154l1.329-.768a5.668,5.668,0,0,0,1.051.883l-.525,1.442a.421.421,0,0,0,.251.539l1.62.59a.42.42,0,0,0,.539-.251l.525-1.442a5.721,5.721,0,0,0,1.373,0l.525,1.442a.42.42,0,0,0,.4.277.415.415,0,0,0,.144-.026l1.62-.59a.421.421,0,0,0,.251-.539l-.525-1.442a5.7,5.7,0,0,0,1.051-.883l1.329.768a.422.422,0,0,0,.21.056.43.43,0,0,0,.109-.014.42.42,0,0,0,.255-.2l.862-1.494a.42.42,0,0,0-.154-.574l-1.328-.766a5.667,5.667,0,0,0,.237-1.353l1.511-.266a.42.42,0,0,0,.271-.173A.412.412,0,0,0,303.487,281.362Zm-7.522,2.7a2.313,2.313,0,1,1,2.313-2.313A2.313,2.313,0,0,1,295.964,284.061Z" transform="translate(-207.596 -202.131)"/>
        <g id="Group_2" data-name="Group 2" transform="translate(29.088 33.456)">
          <path id="Path_9" data-name="Path 9" class="cls-1" d="M87.125,172.085a1.409,1.409,0,0,0-.813-1.273l-4.518-2.1,4.518-2.1a1.409,1.409,0,0,0,.812-1.273V165.3a1.4,1.4,0,0,0-1.405-1.4,1.411,1.411,0,0,0-.591.13l-7.223,3.359a1.409,1.409,0,0,0-.812,1.273v.1a1.411,1.411,0,0,0,.812,1.273L85.13,173.4a1.4,1.4,0,0,0,2-1.273v-.037Z" transform="translate(-77.094 -159.902)"/>
          <path id="Path_10" data-name="Path 10" class="cls-1" d="M170.235,129.558a1.409,1.409,0,0,0-1.134-.576h-.036a1.4,1.4,0,0,0-1.337.975L162.969,144.7a1.4,1.4,0,0,0,1.338,1.831h.036a1.4,1.4,0,0,0,1.337-.975l4.759-14.745A1.407,1.407,0,0,0,170.235,129.558Z" transform="translate(-153.077 -128.982)"/>
          <path id="Path_11" data-name="Path 11" class="cls-1" d="M236.713,167.39l-7.223-3.359a1.4,1.4,0,0,0-2,1.273v.037a1.411,1.411,0,0,0,.813,1.274l4.518,2.1-4.518,2.1a1.409,1.409,0,0,0-.813,1.273v.037a1.4,1.4,0,0,0,2,1.273l7.224-3.359a1.41,1.41,0,0,0,.812-1.273v-.1A1.41,1.41,0,0,0,236.713,167.39Z" transform="translate(-210.271 -159.903)"/>
        </g>
      </g>
    </g>
  </g>
</svg>
