<?xml version="1.0" standalone="no"?>
<!DOCTYPE svg PUBLIC "-//W3C//DTD SVG 20010904//EN"
 "http://www.w3.org/TR/2001/REC-SVG-20010904/DTD/svg10.dtd">
<svg version="1.0" xmlns="http://www.w3.org/2000/svg"
 width="1876.000000pt" height="1876.000000pt" viewBox="0 0 1876.000000 1876.000000"
 preserveAspectRatio="xMidYMid meet">
<metadata>
Created by potrace 1.14, written by Peter Selinger 2001-2017
</metadata>
<g transform="translate(0.000000,1876.000000) scale(0.100000,-0.100000)"
fill="#000000" stroke="none">
<path d="M8998 18755 c-2 -1 -55 -6 -118 -9 -63 -4 -142 -9 -175 -11 -143 -10
-212 -16 -240 -19 -16 -2 -60 -7 -97 -11 -37 -3 -75 -7 -85 -9 -10 -2 -49 -7
-88 -12 -38 -4 -72 -8 -75 -9 -3 0 -32 -4 -65 -9 -109 -13 -376 -61 -605 -107
-75 -15 -256 -57 -304 -70 -22 -6 -47 -12 -56 -14 -41 -8 -269 -71 -415 -115
-505 -152 -1027 -361 -1500 -600 -195 -99 -221 -113 -435 -233 -153 -86 -524
-316 -528 -328 -2 -5 -7 -9 -12 -9 -24 0 -526 -362 -666 -479 -17 -14 -48 -39
-69 -56 -21 -16 -43 -34 -49 -40 -6 -5 -56 -48 -111 -94 -364 -304 -773 -716
-1100 -1105 -22 -27 -45 -53 -50 -60 -15 -15 -135 -166 -165 -206 -14 -18 -30
-38 -35 -44 -6 -6 -28 -36 -50 -66 -22 -30 -42 -57 -45 -60 -12 -11 -183 -254
-267 -380 -223 -334 -380 -603 -573 -985 -115 -226 -269 -562 -304 -663 -8
-22 -19 -48 -25 -58 -24 -44 -227 -608 -246 -684 -2 -8 -24 -84 -49 -168 -50
-164 -125 -451 -151 -572 -9 -41 -18 -82 -20 -90 -11 -45 -64 -312 -70 -350
-4 -24 -8 -47 -10 -50 -1 -3 -6 -32 -10 -65 -3 -32 -8 -62 -10 -65 -2 -3 -6
-30 -10 -60 -3 -30 -8 -62 -10 -70 -2 -8 -7 -40 -10 -70 -3 -30 -8 -66 -10
-80 -3 -23 -6 -44 -20 -160 -7 -60 -16 -162 -30 -325 -4 -45 -15 -238 -21
-358 -5 -104 -4 -604 1 -717 7 -164 15 -305 20 -350 3 -25 7 -74 10 -110 3
-36 7 -85 10 -110 3 -25 7 -67 10 -95 5 -48 10 -87 20 -165 3 -19 7 -55 10
-80 6 -39 26 -175 41 -265 34 -212 114 -587 163 -775 18 -65 56 -205 65 -235
1 -5 8 -30 15 -55 7 -25 33 -110 58 -190 26 -80 48 -149 49 -155 4 -19 104
-300 113 -320 6 -11 39 -94 74 -185 136 -347 341 -781 511 -1078 20 -35 36
-66 36 -68 0 -6 209 -353 241 -401 16 -23 29 -44 29 -46 0 -6 200 -304 232
-347 10 -14 79 -106 152 -205 157 -213 273 -357 465 -579 149 -173 506 -539
672 -691 36 -33 85 -78 110 -100 406 -371 1033 -830 1493 -1095 362 -208 693
-378 976 -500 41 -17 93 -40 115 -50 125 -58 503 -200 735 -276 245 -81 651
-197 762 -218 13 -2 70 -15 128 -29 58 -14 155 -35 215 -46 61 -12 121 -23
135 -26 24 -5 174 -31 233 -41 15 -2 40 -6 56 -9 16 -3 49 -7 72 -10 24 -3 55
-7 69 -10 14 -2 49 -7 79 -10 30 -4 61 -8 70 -10 9 -1 50 -6 91 -10 41 -4 83
-9 93 -11 10 -1 55 -6 100 -9 45 -3 103 -7 127 -10 68 -6 228 -16 332 -21 106
-5 695 -5 778 0 30 2 111 7 180 11 69 3 141 8 160 10 19 2 71 6 115 10 44 4
92 8 108 10 15 2 55 6 90 10 81 9 115 13 157 19 19 3 55 8 80 11 25 4 56 8 70
10 14 2 61 9 105 15 44 7 89 14 100 16 11 3 36 7 55 10 126 20 506 102 670
144 107 28 205 52 217 55 134 31 788 250 908 304 11 5 56 23 100 41 44 17 94
37 110 44 261 114 360 160 585 274 277 139 302 152 465 247 55 32 109 63 120
69 11 6 31 19 45 27 14 9 75 47 135 84 102 63 394 255 419 276 13 11 268 197
300 219 71 49 496 400 557 459 9 9 56 52 105 96 158 143 443 432 619 626 138
151 373 434 461 554 16 22 32 42 35 45 15 12 253 348 351 495 107 162 144 220
261 420 142 242 188 328 327 610 70 143 149 310 175 370 25 61 52 124 60 140
69 154 230 590 296 805 58 186 124 417 134 470 2 11 6 24 10 29 3 5 9 29 14
53 5 24 12 52 15 63 14 57 57 247 62 280 3 21 10 49 15 62 5 13 7 23 4 23 -2
0 0 14 5 32 5 17 12 50 15 72 4 23 11 60 16 84 5 24 11 60 14 80 3 20 7 48 10
62 3 14 7 41 10 60 3 19 7 46 9 60 3 14 8 48 12 75 3 28 8 61 10 75 2 14 6 50
9 80 3 30 8 66 10 80 5 27 11 81 20 175 3 33 8 85 11 115 36 355 40 1137 9
1505 -3 33 -7 89 -10 123 -3 35 -8 89 -10 120 -3 32 -7 73 -10 92 -2 19 -7 58
-10 85 -4 28 -8 61 -10 75 -2 14 -7 48 -10 75 -73 569 -258 1331 -450 1850
-14 39 -27 78 -30 87 -8 36 -157 403 -231 570 -110 250 -264 559 -389 783
-102 185 -343 578 -357 583 -4 2 -8 8 -8 13 0 15 -179 273 -329 474 -136 182
-370 469 -482 590 -20 22 -63 69 -95 105 -194 217 -577 592 -768 751 -16 13
-34 29 -40 34 -244 217 -633 509 -961 724 -77 50 -147 96 -155 101 -39 27
-258 156 -280 167 -8 3 -33 18 -55 32 -111 69 -542 292 -740 381 -11 5 -56 26
-100 46 -310 141 -738 298 -1182 434 -109 33 -519 139 -568 146 -16 3 -43 9
-60 14 -16 4 -48 12 -70 16 -22 4 -44 8 -50 9 -19 5 -220 44 -250 50 -40 7
-141 23 -190 30 -22 3 -65 10 -95 15 -65 11 -116 18 -185 25 -27 3 -86 10
-130 15 -70 8 -106 12 -240 25 -16 2 -79 7 -140 10 -60 4 -126 9 -145 11 -40
5 -897 13 -902 9z"/>
</g>
</svg>
