<?xml version="1.0"?>
<svg xmlns="http://www.w3.org/2000/svg" viewBox="0 0 16 16">
    <path d="M 11.5 0 L 11.5 1.0449219 C 11.046729 1.1222258 10.633025 1.3084149 10.273438 1.5664062 L 9.5253906 0.81835938 L 8.8183594 1.5253906 L 9.5683594 2.2753906 C 9.3133862 2.6357184 9.1276782 3.0478349 9.0507812 3.5 L 8 3.5 L 8 4.5 L 9.0507812 4.5 C 9.1276782 4.9521651 9.3133862 5.3642816 9.5683594 5.7246094 L 8.8183594 6.4746094 L 9.5253906 7.1816406 L 10.273438 6.4335938 C 10.633025 6.6915851 11.046729 6.8777742 11.5 6.9550781 L 11.5 8 L 12.5 8 L 12.5 6.9550781 C 12.953271 6.8777742 13.366974 6.6915851 13.726562 6.4335938 L 14.474609 7.1816406 L 15.181641 6.4746094 L 14.431641 5.7246094 C 14.686614 5.3642816 14.872322 4.9521651 14.949219 4.5 L 16 4.5 L 16 3.5 L 14.949219 3.5 C 14.872322 3.0478349 14.686614 2.6357184 14.431641 2.2753906 L 15.181641 1.5253906 L 14.474609 0.81835938 L 13.726562 1.5664062 C 13.366974 1.3084149 12.953271 1.1222258 12.5 1.0449219 L 12.5 0 L 11.5 0 z M 6.5683594 1 L 6.3378906 2.2382812 C 5.4008906 2.5082813 4.54875 3.0026406 3.84375 3.6816406 L 2.6523438 3.2617188 L 1.2226562 5.7382812 L 2.1757812 6.5566406 C 2.0587813 7.0296406 2 7.513 2 8 C 2 8.488 2.0587813 8.9713594 2.1757812 9.4433594 L 1.2226562 10.261719 L 2.6523438 12.738281 L 3.84375 12.318359 C 4.54875 12.998359 5.4008906 13.492719 6.3378906 13.761719 L 6.5683594 15 L 9.4277344 15 L 9.6582031 13.761719 C 10.596203 13.491719 11.448297 12.999313 12.154297 12.320312 L 13.34375 12.738281 L 14.773438 10.261719 L 13.822266 9.4453125 C 13.900266 9.1343125 13.943703 8.8180469 13.970703 8.4980469 L 12.964844 8.4921875 C 12.931844 8.8231875 12.878297 9.15075 12.779297 9.46875 L 12.681641 9.78125 L 13.494141 10.478516 L 12.894531 11.517578 L 11.878906 11.160156 L 11.654297 11.400391 C 10.967297 12.137391 10.090234 12.645141 9.1152344 12.869141 L 8.7949219 12.941406 L 8.5996094 14 L 7.3984375 14 L 7.2011719 12.943359 L 6.8828125 12.869141 C 5.9078125 12.645141 5.02975 12.138391 4.34375 11.400391 L 4.1191406 11.162109 L 3.1035156 11.519531 L 2.5039062 10.480469 L 3.3164062 9.7832031 L 3.2207031 9.4707031 C 3.0737031 8.9947031 3 8.499 3 8 C 3 7.502 3.0747031 7.0072969 3.2207031 6.5292969 L 3.3164062 6.2167969 L 2.5039062 5.5195312 L 3.1035156 4.4804688 L 4.1210938 4.8378906 L 4.34375 4.5976562 C 5.02975 3.8606563 5.9068125 3.3548594 6.8828125 3.1308594 L 7.203125 3.0566406 L 7.3984375 2 L 7.7402344 2 L 7.875 1 L 6.5683594 1 z M 12 2 C 13.110492 2 14 2.8895082 14 4 C 14 5.1104918 13.110492 6 12 6 C 10.889508 6 10 5.1104918 10 4 C 10 2.8895082 10.889508 2 12 2 z M 7.4023438 5.0605469 C 6.0333438 5.3385469 5 6.551 5 8 C 5 9.654 6.346 11 8 11 C 9.498 11 10.732125 9.8930781 10.953125 8.4550781 C 10.615125 8.4330781 10.287656 8.3695781 9.9726562 8.2675781 C 9.8396562 9.2425781 9.011 10 8 10 C 6.897 10 6 9.103 6 8 C 6 7.041 6.6780781 6.240875 7.5800781 6.046875 C 7.4690781 5.738875 7.4173438 5.4065469 7.4023438 5.0605469 z"/>
</svg>
